<svg id="Capa_1" data-name="Capa 1" xmlns="http://www.w3.org/2000/svg" viewBox="0 0 173.99 175.49"><defs><style>.cls-1{fill:#fff;stroke:#1d1d1b;stroke-miterlimit:10;stroke-width:3px;}.cls-2{fill:#1d1d1b;}</style></defs><title>Mesa de trabajo 1</title><circle class="cls-1" cx="87.42" cy="95.46" r="68.91"/><path class="cls-2" d="M55.92,102.15V88.42L45.7,69.79h4.75L55,78.72c1.25,2.45,2.21,4.42,3.21,6.68h.1c.91-2.12,2-4.23,3.26-6.68l4.66-8.93H71L60.14,88.37v13.78Z"/><path class="cls-2" d="M110.21,102.15V88.42L100,69.79h4.75l4.57,8.93c1.24,2.45,2.2,4.42,3.21,6.68h.1c.91-2.12,2-4.23,3.26-6.68l4.66-8.93h4.75L114.43,88.37v13.78Z"/><path class="cls-2" d="M36.9,113.4c8.64,21.36,29.51,35.14,52,34.5a54.69,54.69,0,0,0,48-32.5"/></svg>